<?xml version="1.0" encoding="UTF-8" standalone="no"?>
<!-- Created with Inkscape (http://www.inkscape.org/) -->

<svg
   width="137.0459mm"
   height="44.648434mm"
   viewBox="0 0 137.0459 44.648434"
   version="1.1"
   id="svg1"
   xml:space="preserve"
   inkscape:version="1.4.2 (ebf0e940, 2025-05-08)"
   sodipodi:docname="novacrate-nobg.svg"
   xmlns:inkscape="http://www.inkscape.org/namespaces/inkscape"
   xmlns:sodipodi="http://sodipodi.sourceforge.net/DTD/sodipodi-0.dtd"
   xmlns="http://www.w3.org/2000/svg"
   xmlns:svg="http://www.w3.org/2000/svg"><sodipodi:namedview
     id="namedview1"
     pagecolor="#ffffff"
     bordercolor="#000000"
     borderopacity="0.25"
     inkscape:showpageshadow="2"
     inkscape:pageopacity="0.0"
     inkscape:pagecheckerboard="0"
     inkscape:deskcolor="#d1d1d1"
     inkscape:document-units="mm"
     inkscape:zoom="1.4142136"
     inkscape:cx="245.01249"
     inkscape:cy="55.154327"
     inkscape:window-width="1680"
     inkscape:window-height="909"
     inkscape:window-x="0"
     inkscape:window-y="31"
     inkscape:window-maximized="0"
     inkscape:current-layer="layer1"
     inkscape:export-bgcolor="#00000000" /><defs
     id="defs1"><linearGradient
       id="linearGradient2-1"><stop
         style="stop-color:#ffe047;stop-opacity:1;"
         offset="0"
         id="stop6" /><stop
         style="stop-color:#73fff9;stop-opacity:1;"
         offset="0.39930555"
         id="stop8" /><stop
         style="stop-color:#fd9aff;stop-opacity:1;"
         offset="0.84895831"
         id="stop9" /><stop
         style="stop-color:#ff8ed9;stop-opacity:0.89930558;"
         offset="1"
         id="stop7" /></linearGradient></defs><g
     inkscape:label="Ebene 1"
     inkscape:groupmode="layer"
     id="layer1"
     transform="translate(-44.44173,-116.37534)"><path
       style="font-weight:bold;font-size:16.9333px;font-family:Geist;-inkscape-font-specification:'Geist Bold';white-space:pre;inline-size:96.5667;stroke-width:0.264583"
       d="m 84.76283,143.86719 v -12.02265 h 2.844794 l 4.775191,8.29732 v -8.29732 h 2.573861 v 12.02265 h -2.878661 l -4.741324,-8.00945 v 8.00945 z m 16.50996,0.2032 q -1.388528,0 -2.421459,-0.57574 -1.032931,-0.59266 -1.608663,-1.65946 -0.575733,-1.0668 -0.575733,-2.50613 0,-1.43933 0.575733,-2.48919 0.575732,-1.0668 1.608663,-1.65947 1.032931,-0.59266 2.421459,-0.59266 1.38853,0 2.42146,0.59266 1.03294,0.59267 1.60867,1.65947 0.57573,1.04986 0.57573,2.48919 0,1.43933 -0.57573,2.50613 -0.57573,1.0668 -1.60867,1.65946 -1.03293,0.57574 -2.42146,0.57574 z m 0,-1.94733 q 0.94827,0 1.4732,-0.72813 0.52493,-0.74507 0.52493,-2.06587 0,-1.32079 -0.52493,-2.04893 -0.52493,-0.74506 -1.4732,-0.74506 -0.94826,0 -1.473194,0.74506 -0.524932,0.72814 -0.524932,2.04893 0,1.3208 0.524932,2.06587 0.524934,0.72813 1.473194,0.72813 z m 8.41247,1.74413 -3.31892,-9.07625 h 2.65853 l 2.15052,6.51932 2.1336,-6.51932 h 2.65853 l -3.33586,9.07625 z m 9.95339,0.2032 q -1.40546,0 -2.30293,-0.64347 -0.88053,-0.6604 -0.88053,-1.82879 0,-1.20227 0.74507,-1.84573 0.76199,-0.6604 2.23519,-0.9652 l 2.92946,-0.57573 q 0,-0.88054 -0.4064,-1.3208 -0.38946,-0.4572 -1.13453,-0.4572 -0.72813,0 -1.13453,0.33866 -0.4064,0.32174 -0.52493,0.9652 l -2.55693,-0.11853 q 0.254,-1.49013 1.33773,-2.25213 1.10067,-0.77893 2.87866,-0.77893 2.032,0 3.048,0.9652 1.03293,0.9652 1.03293,2.82786 v 3.09879 q 0,0.38947 0.11853,0.52493 0.13547,0.11854 0.38947,0.11854 h 0.254 v 1.74413 q -0.11854,0.0339 -0.38947,0.0677 -0.254,0.0339 -0.508,0.0339 -0.54186,0 -1.016,-0.18627 -0.4572,-0.18627 -0.74506,-0.62653 -0.28787,-0.4572 -0.28787,-1.28693 l 0.22014,0.16933 q -0.16934,0.6096 -0.6096,1.0668 -0.42334,0.4572 -1.1176,0.7112 -0.67733,0.254 -1.5748,0.254 z m 0.6096,-1.74413 q 0.62653,0 1.10066,-0.23707 0.47414,-0.254 0.74507,-0.72813 0.27093,-0.47413 0.27093,-1.1176 v -0.44026 l -2.06586,0.44026 q -0.6096,0.11853 -0.93133,0.4064 -0.3048,0.27093 -0.3048,0.7112 0,0.4572 0.3048,0.7112 0.3048,0.254 0.88053,0.254 z m 11.98878,1.81186 q -1.64253,0 -2.92946,-0.74506 -1.27,-0.74507 -1.99813,-2.15053 -0.7112,-1.40547 -0.7112,-3.36973 0,-1.91346 0.69426,-3.31893 0.69427,-1.42239 1.9812,-2.20133 1.28693,-0.77893 3.01413,-0.77893 2.35373,0 3.65759,1.1684 1.3208,1.15146 1.69333,3.30199 l -2.67546,0.1016 q -0.2032,-1.13453 -0.88053,-1.76106 -0.67734,-0.64347 -1.79493,-0.64347 -0.9652,0 -1.64253,0.508 -0.67734,0.508 -1.03293,1.43933 -0.3556,0.93134 -0.3556,2.1844 0,1.27 0.3556,2.20133 0.37253,0.9144 1.04986,1.40546 0.67733,0.49107 1.60866,0.49107 1.2192,0 1.8796,-0.67733 0.67733,-0.69427 0.84666,-1.91347 l 2.6924,0.1016 q -0.23707,1.4732 -0.93133,2.50613 -0.69427,1.03293 -1.8288,1.59173 -1.1176,0.5588 -2.69239,0.5588 z m 7.04086,-0.27093 v -9.07625 h 2.40453 l 0.0847,2.64159 -0.18627,-0.0508 q 0.22013,-1.37159 0.77893,-1.98119 0.5588,-0.6096 1.54093,-0.6096 h 0.82973 v 2.09973 h -0.82973 q -0.7112,0 -1.1684,0.18626 -0.45719,0.18627 -0.69426,0.59267 -0.22013,0.4064 -0.22013,1.10066 v 5.09693 z m 9.3133,0.2032 q -1.40546,0 -2.30293,-0.64347 -0.88053,-0.6604 -0.88053,-1.82879 0,-1.20227 0.74506,-1.84573 0.762,-0.6604 2.2352,-0.9652 l 2.92946,-0.57573 q 0,-0.88054 -0.4064,-1.3208 -0.38946,-0.4572 -1.13453,-0.4572 -0.72813,0 -1.13453,0.33866 -0.4064,0.32174 -0.52493,0.9652 l -2.55693,-0.11853 q 0.254,-1.49013 1.33773,-2.25213 1.10066,-0.77893 2.87866,-0.77893 2.032,0 3.04799,0.9652 1.03294,0.9652 1.03294,2.82786 v 3.09879 q 0,0.38947 0.11853,0.52493 0.13546,0.11854 0.38946,0.11854 h 0.254 v 1.74413 q -0.11853,0.0339 -0.38946,0.0677 -0.254,0.0339 -0.508,0.0339 -0.54187,0 -1.016,-0.18627 -0.4572,-0.18627 -0.74506,-0.62653 -0.28787,-0.4572 -0.28787,-1.28693 l 0.22013,0.16933 q -0.16933,0.6096 -0.6096,1.0668 -0.42333,0.4572 -1.11759,0.7112 -0.67734,0.254 -1.5748,0.254 z m 0.6096,-1.74413 q 0.62653,0 1.10066,-0.23707 0.47413,-0.254 0.74507,-0.72813 0.27093,-0.47413 0.27093,-1.1176 v -0.44026 l -2.06586,0.44026 q -0.6096,0.11853 -0.93133,0.4064 -0.3048,0.27093 -0.3048,0.7112 0,0.4572 0.3048,0.7112 0.3048,0.254 0.88053,0.254 z m 9.77053,1.54093 q -1.40547,0 -2.06586,-0.64347 -0.6604,-0.6604 -0.6604,-2.08279 v -8.48359 h 2.53999 v 8.17879 q 0,0.6604 0.27094,0.89746 0.28786,0.23707 0.84666,0.23707 h 1.27 v 1.89653 z m -4.18253,-7.17972 v -1.89653 h 6.38386 v 1.89653 z m 11.80926,7.38292 q -1.38853,0 -2.42146,-0.57574 -1.016,-0.59266 -1.59173,-1.65946 -0.5588,-1.0668 -0.5588,-2.50613 0,-1.43933 0.5588,-2.48919 0.57573,-1.0668 1.59173,-1.65947 1.016,-0.59266 2.40453,-0.59266 1.35466,0 2.35373,0.59266 0.99906,0.59267 1.54093,1.69333 0.5588,1.10067 0.5588,2.62467 v 0.508 h -6.38386 q 0.0508,1.08373 0.57573,1.60866 0.54187,0.52493 1.4224,0.52493 0.64347,0 1.0668,-0.27093 0.44027,-0.27093 0.62653,-0.82973 l 2.55693,0.1524 q -0.3556,1.35466 -1.50706,2.11666 -1.15147,0.762 -2.794,0.762 z m -1.94733,-5.62186 h 3.77613 q -0.0508,-0.99906 -0.5588,-1.49013 -0.49107,-0.49106 -1.28693,-0.49106 -0.79587,0 -1.3208,0.52493 -0.508,0.508 -0.6096,1.45626 z"
       id="text1"
       aria-label="NovaCrate" /><g
       style="fill:none;stroke:#000000;stroke-width:2;stroke-linecap:round;stroke-linejoin:round;stroke-opacity:1"
       id="g1"
       transform="matrix(1.3519394,0,0,1.3519394,49.31982,122.14737)"><path
         d="m 11,21.73 a 2,2 0 0 0 2,0 l 7,-4 A 2,2 0 0 0 21,16 V 8 A 2,2 0 0 0 20,6.27 l -7,-4 a 2,2 0 0 0 -2,0 l -7,4 A 2,2 0 0 0 3,8 v 8 a 2,2 0 0 0 1,1.73 z"
         id="path1"
         style="stroke:#000000;stroke-opacity:1" /><path
         d="M 12,22 V 12"
         id="path2"
         style="stroke:#000000;stroke-opacity:1" /><polyline
         points="3.29 7 12 12 20.71 7"
         id="polyline2"
         style="stroke:#000000;stroke-opacity:1" /><path
         d="m 7.5,4.27 9,5.15"
         id="path3"
         style="stroke:#000000;stroke-opacity:1" /></g><path
       style="font-weight:500;font-size:4.23333px;font-family:Geist;-inkscape-font-specification:'Geist Medium';letter-spacing:0.478896px;word-spacing:1.0451px;white-space:pre;inline-size:86.6824;stroke-width:0.264583"
       d="m 84.700004,148.82812 v -3.00566 h 1.198032 q 0.321733,0 0.554566,0.11007 0.232834,0.11006 0.359833,0.31326 0.127,0.2032 0.127,0.4826 0,0.2032 -0.09313,0.36407 -0.0889,0.16087 -0.2413,0.25823 -0.148166,0.0931 -0.317499,0.10584 l -0.02117,-0.0381 q 0.283633,0 0.440266,0.13123 0.156633,0.127 0.182033,0.40217 l 0.08043,0.87629 h -0.461433 l -0.07197,-0.81703 q -0.0127,-0.18203 -0.122766,-0.2667 -0.110067,-0.0889 -0.359834,-0.0889 h -0.795866 v 1.17263 z m 0.457199,-1.59173 h 0.7493 q 0.258233,0 0.4064,-0.127 0.152399,-0.13123 0.152399,-0.3683 0,-0.2413 -0.152399,-0.3683 -0.1524,-0.13123 -0.4445,-0.13123 h -0.7112 z m 2.900362,1.59173 v -3.00566 h 1.955799 v 0.4191 h -1.498599 v 0.8763 h 1.447799 v 0.4064 h -1.447799 v 0.88477 h 1.532465 v 0.41909 z m 4.140723,0.0677 q -0.359833,0 -0.626532,-0.13123 -0.262467,-0.13124 -0.414867,-0.36407 -0.1524,-0.23283 -0.177799,-0.54187 l 0.469899,-0.0296 q 0.02963,0.21167 0.122767,0.35983 0.09313,0.14394 0.249766,0.22014 0.160867,0.072 0.385233,0.072 0.194733,0 0.3302,-0.0466 0.1397,-0.0508 0.211666,-0.14817 0.07197,-0.0974 0.07197,-0.23707 0,-0.127 -0.0635,-0.22436 -0.05927,-0.1016 -0.232833,-0.18204 -0.169333,-0.0847 -0.499533,-0.1651 -0.359833,-0.0889 -0.575733,-0.19473 -0.2159,-0.10583 -0.313266,-0.26247 -0.09313,-0.16086 -0.09313,-0.3937 0,-0.25823 0.122767,-0.45296 0.127,-0.19897 0.359833,-0.30904 0.232833,-0.11006 0.5588,-0.11006 0.342899,0 0.584199,0.127 0.245533,0.127 0.385233,0.34713 0.143933,0.22013 0.1778,0.50377 l -0.4699,0.0254 q -0.02117,-0.17357 -0.105833,-0.3048 -0.08467,-0.13547 -0.2286,-0.20744 -0.143933,-0.0762 -0.351366,-0.0762 -0.262467,0 -0.414866,0.12277 -0.148167,0.11853 -0.148167,0.3175 0,0.127 0.05927,0.2159 0.0635,0.0847 0.220133,0.14817 0.160866,0.0635 0.452966,0.13546 0.389466,0.0889 0.618066,0.22014 0.232833,0.127 0.3302,0.30056 0.09737,0.17357 0.09737,0.3937 0,0.2667 -0.1397,0.46567 -0.135467,0.19473 -0.381,0.30057 -0.245533,0.10583 -0.5715,0.10583 z m 2.207781,-0.0677 v -3.00566 h 1.955798 v 0.4191 h -1.498598 v 0.8763 h 1.447798 v 0.4064 h -1.447798 v 0.88477 h 1.532465 v 0.41909 z m 2.777591,0 1.083732,-3.00566 h 0.579966 l 1.083733,3.00566 h -0.486833 l -0.275166,-0.78316 h -1.227666 l -0.270933,0.78316 z m 0.901699,-1.19803 h 0.944033 l -0.474133,-1.3716 z m 2.680221,1.19803 v -3.00566 h 1.19803 q 0.32173,0 0.55457,0.11007 0.23283,0.11006 0.35983,0.31326 0.127,0.2032 0.127,0.4826 0,0.2032 -0.0931,0.36407 -0.0889,0.16087 -0.2413,0.25823 -0.14816,0.0931 -0.31749,0.10584 l -0.0212,-0.0381 q 0.28363,0 0.44026,0.13123 0.15664,0.127 0.18204,0.40217 l 0.0804,0.87629 h -0.46143 l -0.072,-0.81703 q -0.0127,-0.18203 -0.12276,-0.2667 -0.11007,-0.0889 -0.35984,-0.0889 h -0.79586 v 1.17263 z m 0.4572,-1.59173 h 0.7493 q 0.25823,0 0.4064,-0.127 0.1524,-0.13123 0.1524,-0.3683 0,-0.2413 -0.1524,-0.3683 -0.1524,-0.13123 -0.4445,-0.13123 h -0.7112 z m 4.03066,1.65947 q -0.4064,0 -0.71543,-0.18627 -0.30903,-0.1905 -0.4826,-0.54186 -0.17357,-0.35137 -0.17357,-0.8382 0,-0.4826 0.16934,-0.83397 0.17356,-0.3556 0.4826,-0.5461 0.30903,-0.19473 0.72389,-0.19473 0.5588,0 0.86784,0.2794 0.30903,0.2794 0.40216,0.7747 l -0.47836,0.0254 q -0.0593,-0.30904 -0.254,-0.4826 -0.19474,-0.1778 -0.53764,-0.1778 -0.27516,0 -0.47836,0.1397 -0.19897,0.1397 -0.31327,0.39793 -0.11006,0.25823 -0.11006,0.61807 0,0.35983 0.11006,0.61806 0.1143,0.25824 0.3175,0.3937 0.2032,0.13547 0.4699,0.13547 0.36407,0 0.56303,-0.1905 0.2032,-0.19473 0.254,-0.5334 l 0.47837,0.0254 q -0.055,0.3429 -0.22013,0.59267 -0.1651,0.24976 -0.43604,0.38946 -0.27093,0.13547 -0.63923,0.13547 z m 2.2933,-0.0677 v -3.00566 h 0.4572 v 1.4478 l -0.22013,-0.16087 h 1.8288 l -0.22014,0.16087 v -1.4478 h 0.4572 v 3.00566 h -0.4572 v -1.46473 l 0.22014,0.16087 h -1.8288 l 0.22013,-0.16087 v 1.46473 z m 7.28609,0.0677 q -0.43604,0 -0.7493,-0.18627 -0.31327,-0.1905 -0.4826,-0.54186 -0.16933,-0.35137 -0.16933,-0.8382 0,-0.48684 0.16933,-0.8382 0.16933,-0.3556 0.4826,-0.5461 0.31326,-0.1905 0.7493,-0.1905 0.44026,0 0.75353,0.1905 0.3175,0.1905 0.4826,0.5461 0.16933,0.35136 0.16933,0.8382 0,0.48683 -0.16933,0.8382 -0.1651,0.35136 -0.4826,0.54186 -0.31327,0.18627 -0.75353,0.18627 z m 0,-0.4191 q 0.2921,0 0.49953,-0.13547 0.21167,-0.13546 0.32173,-0.38946 0.11007,-0.25824 0.11007,-0.6223 0,-0.36407 -0.11007,-0.6223 -0.11006,-0.25824 -0.32173,-0.3937 -0.20743,-0.1397 -0.49953,-0.1397 -0.28787,0 -0.4953,0.1397 -0.20744,0.13546 -0.32174,0.3937 -0.11006,0.25823 -0.11006,0.6223 0,0.36406 0.11006,0.6223 0.1143,0.254 0.32174,0.38946 0.20743,0.13547 0.4953,0.13547 z m 2.47871,0.35136 v -3.00566 h 1.0795 q 0.54187,0 0.81703,0.19473 0.27517,0.19474 0.27517,0.61807 0,0.1905 -0.0804,0.33443 -0.0804,0.14394 -0.23707,0.2286 -0.1524,0.0804 -0.36407,0.0847 l -0.004,-0.0169 q 0.38523,0.008 0.5969,0.21166 0.2159,0.19897 0.2159,0.52494 0,0.41063 -0.27517,0.61806 -0.27516,0.20743 -0.78316,0.20743 z m 0.4572,-0.41063 h 0.77047 q 0.28363,0 0.44026,-0.1143 0.16087,-0.11853 0.16087,-0.3429 0,-0.22013 -0.16087,-0.3429 -0.15663,-0.12276 -0.44026,-0.12276 h -0.77047 z m 0,-1.31233 h 0.61383 q 0.30057,0 0.46567,-0.1143 0.1651,-0.1143 0.1651,-0.32173 0,-0.22014 -0.16087,-0.32597 -0.15663,-0.11007 -0.4699,-0.11007 h -0.61383 z m 3.83169,1.7907 q -0.30056,0 -0.52916,-0.13547 -0.22437,-0.1397 -0.34714,-0.381 -0.12276,-0.24553 -0.127,-0.56303 l 0.46567,-0.0254 q 0.004,0.33867 0.14393,0.51223 0.1397,0.17357 0.3937,0.17357 0.2667,0 0.4064,-0.18203 0.14394,-0.18204 0.14394,-0.52494 v -1.94733 h 0.4572 v 1.94733 q 0,0.3429 -0.127,0.5969 -0.12277,0.254 -0.34714,0.3937 -0.22436,0.13547 -0.5334,0.13547 z m 2.21456,-0.0677 v -3.00566 h 1.9558 v 0.4191 h -1.4986 v 0.8763 h 1.4478 v 0.4064 h -1.4478 v 0.88477 h 1.53247 v 0.41909 z m 4.25079,0.0677 q -0.4064,0 -0.71543,-0.18627 -0.30903,-0.1905 -0.4826,-0.54186 -0.17357,-0.35137 -0.17357,-0.8382 0,-0.4826 0.16934,-0.83397 0.17356,-0.3556 0.48259,-0.5461 0.30904,-0.19473 0.7239,-0.19473 0.5588,0 0.86784,0.2794 0.30903,0.2794 0.40216,0.7747 l -0.47836,0.0254 q -0.0593,-0.30904 -0.254,-0.4826 -0.19474,-0.1778 -0.53764,-0.1778 -0.27516,0 -0.47836,0.1397 -0.19897,0.1397 -0.31327,0.39793 -0.11007,0.25823 -0.11007,0.61807 0,0.35983 0.11007,0.61806 0.1143,0.25824 0.3175,0.3937 0.2032,0.13547 0.4699,0.13547 0.36407,0 0.56303,-0.1905 0.2032,-0.19473 0.254,-0.5334 l 0.47837,0.0254 q -0.055,0.3429 -0.22013,0.59267 -0.1651,0.24976 -0.43604,0.38946 -0.27093,0.13547 -0.63923,0.13547 z m 2.84956,-0.0677 v -2.58656 h -0.92286 v -0.4191 h 2.30293 v 0.4191 h -0.92287 v 2.58656 z m 6.02033,0.0677 q -0.4064,0 -0.71543,-0.18627 -0.30904,-0.1905 -0.4826,-0.54186 -0.17357,-0.35137 -0.17357,-0.8382 0,-0.4826 0.16933,-0.83397 0.17357,-0.3556 0.4826,-0.5461 0.30904,-0.19473 0.7239,-0.19473 0.5588,0 0.86784,0.2794 0.30903,0.2794 0.40216,0.7747 l -0.47836,0.0254 q -0.0593,-0.30904 -0.254,-0.4826 -0.19474,-0.1778 -0.53764,-0.1778 -0.27516,0 -0.47836,0.1397 -0.19897,0.1397 -0.31327,0.39793 -0.11007,0.25823 -0.11007,0.61807 0,0.35983 0.11007,0.61806 0.1143,0.25824 0.3175,0.3937 0.2032,0.13547 0.4699,0.13547 0.36407,0 0.56303,-0.1905 0.2032,-0.19473 0.254,-0.5334 l 0.47837,0.0254 q -0.055,0.3429 -0.22014,0.59267 -0.16509,0.24976 -0.43603,0.38946 -0.27093,0.13547 -0.63923,0.13547 z m 2.2933,-0.0677 v -3.00566 h 1.19803 q 0.32173,0 0.55457,0.11007 0.23283,0.11006 0.35983,0.31326 0.127,0.2032 0.127,0.4826 0,0.2032 -0.0931,0.36407 -0.0889,0.16087 -0.2413,0.25823 -0.14817,0.0931 -0.3175,0.10584 l -0.0212,-0.0381 q 0.28363,0 0.44027,0.13123 0.15663,0.127 0.18203,0.40217 l 0.0804,0.87629 h -0.46143 l -0.072,-0.81703 q -0.0127,-0.18203 -0.12276,-0.2667 -0.11007,-0.0889 -0.35984,-0.0889 h -0.79586 v 1.17263 z m 0.4572,-1.59173 h 0.7493 q 0.25823,0 0.4064,-0.127 0.1524,-0.13123 0.1524,-0.3683 0,-0.2413 -0.1524,-0.3683 -0.1524,-0.13123 -0.4445,-0.13123 h -0.7112 z m 2.57863,1.59173 1.08373,-3.00566 h 0.57997 l 1.08373,3.00566 h -0.48684 l -0.27516,-0.78316 h -1.22767 l -0.27093,0.78316 z m 0.9017,-1.19803 h 0.94403 l -0.47413,-1.3716 z m 2.9884,1.19803 v -2.58656 h -0.92286 v -0.4191 h 2.30293 v 0.4191 h -0.92287 v 2.58656 z m 2.16376,0 v -3.00566 h 1.9558 v 0.4191 h -1.4986 v 0.8763 h 1.4478 v 0.4064 h -1.4478 v 0.88477 h 1.53247 v 0.41909 z m 5.60969,0 v -3.00566 h 1.9558 v 0.4191 h -1.4986 v 0.8763 h 1.4478 v 0.4064 h -1.4478 v 0.88477 h 1.53247 v 0.41909 z m 3.02481,0 v -3.00566 h 0.9652 q 0.70697,0 1.08797,0.3937 0.381,0.38947 0.381,1.11337 0,0.71966 -0.37677,1.10913 -0.37253,0.38946 -1.0668,0.38946 z m 0.4572,-0.41909 h 0.508 q 0.49953,0 0.74507,-0.2667 0.24976,-0.27094 0.24976,-0.8128 0,-0.55034 -0.24976,-0.81704 -0.24554,-0.27093 -0.74507,-0.27093 h -0.508 z m 3.05022,0.41909 v -3.00566 h 0.4572 v 3.00566 z m 2.12142,0 v -2.58656 h -0.92286 v -0.4191 h 2.30293 v 0.4191 h -0.92287 v 2.58656 z m 3.32793,0.0677 q -0.43603,0 -0.7493,-0.18627 -0.31326,-0.1905 -0.4826,-0.54186 -0.16933,-0.35137 -0.16933,-0.8382 0,-0.48684 0.16933,-0.8382 0.16934,-0.3556 0.4826,-0.5461 0.31327,-0.1905 0.7493,-0.1905 0.44027,0 0.75353,0.1905 0.3175,0.1905 0.4826,0.5461 0.16934,0.35136 0.16934,0.8382 0,0.48683 -0.16934,0.8382 -0.1651,0.35136 -0.4826,0.54186 -0.31326,0.18627 -0.75353,0.18627 z m 0,-0.4191 q 0.2921,0 0.49954,-0.13547 0.21166,-0.13546 0.32173,-0.38946 0.11006,-0.25824 0.11006,-0.6223 0,-0.36407 -0.11006,-0.6223 -0.11007,-0.25824 -0.32173,-0.3937 -0.20744,-0.1397 -0.49954,-0.1397 -0.28786,0 -0.4953,0.1397 -0.20743,0.13546 -0.32173,0.3937 -0.11007,0.25823 -0.11007,0.6223 0,0.36406 0.11007,0.6223 0.1143,0.254 0.32173,0.38946 0.20744,0.13547 0.4953,0.13547 z m 2.47872,0.35136 v -3.00566 h 1.19803 q 0.32173,0 0.55457,0.11007 0.23283,0.11006 0.35983,0.31326 0.127,0.2032 0.127,0.4826 0,0.2032 -0.0931,0.36407 -0.0889,0.16087 -0.2413,0.25823 -0.14817,0.0931 -0.3175,0.10584 l -0.0212,-0.0381 q 0.28363,0 0.44027,0.13123 0.15663,0.127 0.18203,0.40217 l 0.0804,0.87629 h -0.46143 l -0.072,-0.81703 q -0.0127,-0.18203 -0.12276,-0.2667 -0.11007,-0.0889 -0.35984,-0.0889 h -0.79586 v 1.17263 z m 0.4572,-1.59173 h 0.7493 q 0.25823,0 0.4064,-0.127 0.1524,-0.13123 0.1524,-0.3683 0,-0.2413 -0.1524,-0.3683 -0.1524,-0.13123 -0.4445,-0.13123 h -0.7112 z"
       id="text2"
       transform="translate(0,0.43848907)"
       aria-label="RESEARCH OBJECT CRATE EDITOR" /></g></svg>
